<?xml version="1.0" encoding="UTF-8" standalone="no"?>
<!-- Generator: Adobe Illustrator 26.0.3, SVG Export Plug-In . SVG Version: 6.00 Build 0)  -->

<svg
   version="1.0"
   id="katman_1"
   x="0px"
   y="0px"
   viewBox="0 0 600 400"
   xml:space="preserve"
   sodipodi:docname="ably-logo.svg"
   width="600"
   height="400"
   inkscape:version="1.3.2 (091e20e, 2023-11-25, custom)"
   xmlns:inkscape="http://www.inkscape.org/namespaces/inkscape"
   xmlns:sodipodi="http://sodipodi.sourceforge.net/DTD/sodipodi-0.dtd"
   xmlns="http://www.w3.org/2000/svg"
   xmlns:svg="http://www.w3.org/2000/svg"><defs
   id="defs12" /><sodipodi:namedview
   id="namedview12"
   pagecolor="#ffffff"
   bordercolor="#000000"
   borderopacity="0.25"
   inkscape:showpageshadow="2"
   inkscape:pageopacity="0.0"
   inkscape:pagecheckerboard="0"
   inkscape:deskcolor="#d1d1d1"
   inkscape:zoom="1.3266667"
   inkscape:cx="399.87436"
   inkscape:cy="299.99999"
   inkscape:window-width="1920"
   inkscape:window-height="992"
   inkscape:window-x="-8"
   inkscape:window-y="1432"
   inkscape:window-maximized="1"
   inkscape:current-layer="katman_1" />
<style
   type="text/css"
   id="style1">
	.st0{fill:#03020D;}
	.st1{fill:url(#SVGID_1_);}
	.st2{fill:url(#SVGID_00000003821511418396707930000016668465375648737926_);}
</style>

<linearGradient
   id="SVGID_1_"
   gradientUnits="userSpaceOnUse"
   x1="155.1376"
   y1="179.72391"
   x2="312.67661"
   y2="354.6882"
   gradientTransform="matrix(1,0,0,-1,-20.9449,604.3622)">
	<stop
   offset="0"
   style="stop-color:#FF5416"
   id="stop1" />
	<stop
   offset="0.2535"
   style="stop-color:#FF5115"
   id="stop2" />
	<stop
   offset="0.461"
   style="stop-color:#FF4712"
   id="stop3" />
	<stop
   offset="0.6523"
   style="stop-color:#FF350E"
   id="stop4" />
	<stop
   offset="0.8327"
   style="stop-color:#FF1E08"
   id="stop5" />
	<stop
   offset="1"
   style="stop-color:#FF0000"
   id="stop6" />
</linearGradient>

<linearGradient
   id="SVGID_00000017507863736134404790000004340496714738773133_"
   gradientUnits="userSpaceOnUse"
   x1="185.70531"
   y1="168.4061"
   x2="278.81531"
   y2="271.81491"
   gradientTransform="matrix(1,0,0,-1,-20.9449,604.3622)">
	<stop
   offset="0"
   style="stop-color:#FF5416"
   id="stop7" />
	<stop
   offset="0.2535"
   style="stop-color:#FF5115"
   id="stop8" />
	<stop
   offset="0.461"
   style="stop-color:#FF4712"
   id="stop9" />
	<stop
   offset="0.6523"
   style="stop-color:#FF350E"
   id="stop10" />
	<stop
   offset="0.8327"
   style="stop-color:#FF1E08"
   id="stop11" />
	<stop
   offset="1"
   style="stop-color:#FF0000"
   id="stop12" />
</linearGradient>
<g
   id="g12"
   transform="translate(-99.85,-99.6)"><path
     class="st0"
     d="M 469.6,352 V 230 h 22 v 44.2 c 7.5,-7.1 17.1,-11 27.2,-11 23.8,0 44.9,18.1 44.9,45.5 0,27.3 -21.1,45.5 -44.9,45.5 -10.7,0 -20.8,-4.2 -28.3,-11.9 v 9.8 h -20.9 z m 72.1,-43.4 c 0,-15.3 -10.9,-26 -25.1,-26 -13.8,0 -24.5,10.1 -25.1,24.9 v 1.1 c 0,15.3 10.9,26 25.1,26 14.2,0 25.1,-10.7 25.1,-26 z M 573.9,352 V 230 h 22 v 122 z m 52.8,31.6 12.8,-30.6 -34.8,-87.7 h 23.8 l 22.2,61.3 22.6,-61.3 h 24.2 L 650.2,383.7 Z M 434.6,265.3 v 11 c -7.6,-8.4 -18.3,-13.1 -29.3,-13.1 -23.8,0 -44.9,18.1 -44.9,45.5 0,27.4 21.1,45.5 44.9,45.5 11.4,0 22.2,-5 30,-13.8 v 11.8 h 19.2 v -86.7 h -19.9 z m -2.2,43.3 c 0,15.1 -10.9,26 -25.1,26 -14.2,0 -25.1,-10.9 -25.1,-26 0,-15.1 10.9,-26 25.1,-26 13.8,0 24.5,10.3 25.1,24.9 z"
     id="path1" /><path
     class="st1"
     d="m 214.8,206.2 -94.2,172.4 -18.4,-12.9 87.2,-159.5 z m 1.3,0 94.2,172.4 18.4,-12.9 -87.2,-159.5 z"
     id="path6"
     style="fill:url(#SVGID_1_)" /><path
     style="fill:url(#SVGID_00000017507863736134404790000004340496714738773133_)"
     d="M 309,379.6 215.4,306.3 121.8,379.6 141,393 215.5,334.7 290,393 Z"
     id="path12" /></g>
</svg>
